<svg width="824" height="147" viewBox="0 0 824 147" fill="none" xmlns="http://www.w3.org/2000/svg">
<rect x="0.291016" y="1.94382" width="25" height="25" fill="#439A0E" fill-opacity="0.2"/>
<rect x="60.291" y="1.94382" width="25" height="25" fill="#439A0E" fill-opacity="0.2"/>
<rect x="180.291" y="0.108368" width="25" height="25" fill="#439A0E" fill-opacity="0.2"/>
<rect x="120.291" y="61.9438" width="25" height="25" fill="#439A0E" fill-opacity="0.2"/>
<rect x="180.291" y="61.9438" width="25" height="25" fill="#439A0E" fill-opacity="0.2"/>
<rect x="0.291016" y="121.944" width="25" height="25" fill="#439A0E" fill-opacity="0.2"/>
<rect x="120.291" y="121.944" width="25" height="25" fill="#439A0E" fill-opacity="0.2"/>
<rect x="180.291" y="121.944" width="25" height="25" fill="#439A0E" fill-opacity="0.2"/>
<rect x="246.291" y="1.94382" width="25" height="25" fill="#439A0E" fill-opacity="0.2"/>
<rect x="366.291" y="1.94382" width="25" height="25" fill="#439A0E" fill-opacity="0.2"/>
<rect x="306.291" y="61.9438" width="25" height="25" fill="#439A0E" fill-opacity="0.2"/>
<rect x="366.291" y="61.9438" width="25" height="25" fill="#439A0E" fill-opacity="0.2"/>
<rect x="426.291" y="61.9438" width="25" height="25" fill="#439A0E" fill-opacity="0.2"/>
<rect x="246.291" y="121.944" width="25" height="25" fill="#439A0E" fill-opacity="0.2"/>
<rect x="366.291" y="121.944" width="25" height="25" fill="#439A0E" fill-opacity="0.2"/>
<rect x="492.291" y="1.94382" width="25" height="25" fill="#439A0E" fill-opacity="0.2"/>
<rect x="612.291" y="1.94382" width="25" height="25" fill="#439A0E" fill-opacity="0.2"/>
<rect x="672.291" y="0.108368" width="25" height="25" fill="#439A0E" fill-opacity="0.2"/>
<rect x="552.291" y="61.9438" width="25" height="25" fill="#439A0E" fill-opacity="0.2"/>
<rect x="612.291" y="61.9438" width="25" height="25" fill="#439A0E" fill-opacity="0.2"/>
<rect x="492.291" y="61.9438" width="25" height="25" fill="#439A0E" fill-opacity="0.2"/>
<rect x="552.291" y="121.944" width="25" height="25" fill="#439A0E" fill-opacity="0.2"/>
<rect x="672.291" y="121.944" width="25" height="25" fill="#439A0E" fill-opacity="0.2"/>
<rect x="798.291" y="1.94382" width="25" height="25" fill="#439A0E" fill-opacity="0.2"/>
</svg>
