<svg width="457" height="451" viewBox="0 0 457 451" fill="none" xmlns="http://www.w3.org/2000/svg">
<g clip-path="url(#clip0_36_134)">
<g filter="url(#filter0_d_36_134)">
<path d="M411.607 60.8985L232.348 10.2199C229.838 9.51002 227.163 9.51002 224.653 10.2199L45.3929 60.8985C39.7295 62.4992 35.8522 67.4114 35.8522 72.9831V258.804C35.8522 282.973 46.2346 307.715 66.7113 332.34C82.3501 351.148 103.988 370.035 131.021 388.474C176.432 419.452 221.149 438.455 223.029 439.248C224.77 439.982 226.635 440.35 228.501 440.35C230.366 440.35 232.232 439.983 233.972 439.248C235.853 438.455 280.569 419.452 325.981 388.474C353.013 370.034 374.649 351.148 390.289 332.34C410.765 307.715 421.148 282.974 421.148 258.804V72.9831C421.148 67.4114 417.27 62.4992 411.607 60.8985Z" fill="#D2E8C6"/>
<path d="M234.944 441.552C236.883 440.734 281.776 421.655 327.39 390.54C354.553 372.01 376.382 352.974 392.211 333.939C412.939 309.012 423.648 283.724 423.648 258.804V72.9831C423.648 66.2075 418.942 60.374 412.287 58.4928L233.028 7.81431C230.074 6.97856 226.927 6.97856 223.973 7.81431L44.713 58.4927C38.0569 60.374 33.3522 66.2076 33.3522 72.9831V258.804C33.3522 283.723 44.0614 309.012 64.789 333.939C80.6169 352.974 102.448 372.01 129.612 390.54C175.224 421.654 220.115 440.732 222.058 441.551C224.112 442.418 226.308 442.85 228.501 442.85C230.692 442.85 232.889 442.419 234.944 441.552ZM234.944 441.552L233.972 439.248L234.945 441.551C234.945 441.551 234.944 441.551 234.944 441.552Z" stroke="#285C08" stroke-width="5"/>
</g>
<g filter="url(#filter1_d_36_134)">
<path d="M411.607 60.8985L232.348 10.2199C231.093 9.86498 229.796 9.6875 228.5 9.6875V440.35C230.365 440.35 232.232 439.983 233.972 439.248C235.853 438.455 280.569 419.452 325.981 388.474C353.013 370.034 374.649 351.148 390.289 332.34C410.765 307.715 421.148 282.974 421.148 258.804V72.9831C421.148 67.4114 417.27 62.4992 411.607 60.8985Z" fill="#B5D9A1"/>
</g>
<path d="M174.065 137.821V92.6705H258.415V347.821H208.015V137.821H174.065ZM283.914 348.298C281.512 348.298 279.356 347.874 277.448 347.026C275.54 346.142 274.021 344.959 272.89 343.475C271.795 341.991 271.194 340.348 271.088 338.546H278.561C278.703 339.676 279.25 340.613 280.204 341.355C281.194 342.097 282.413 342.468 283.861 342.468C285.275 342.468 286.37 342.185 287.147 341.62C287.96 341.054 288.366 340.33 288.366 339.447C288.366 338.493 287.872 337.786 286.882 337.327C285.928 336.832 284.391 336.302 282.271 335.737C280.081 335.207 278.279 334.659 276.865 334.094C275.487 333.528 274.286 332.663 273.261 331.497C272.272 330.331 271.777 328.758 271.777 326.78C271.777 325.154 272.237 323.67 273.155 322.328C274.109 320.985 275.452 319.925 277.183 319.148C278.95 318.37 281.017 317.982 283.384 317.982C286.882 317.982 289.674 318.865 291.758 320.632C293.843 322.363 294.991 324.713 295.203 327.681H288.101C287.995 326.515 287.501 325.596 286.617 324.925C285.769 324.218 284.621 323.865 283.172 323.865C281.83 323.865 280.787 324.112 280.045 324.607C279.339 325.101 278.985 325.79 278.985 326.674C278.985 327.663 279.48 328.423 280.469 328.953C281.459 329.447 282.996 329.96 285.08 330.49C287.2 331.02 288.949 331.567 290.327 332.133C291.705 332.698 292.889 333.581 293.878 334.783C294.903 335.949 295.433 337.503 295.468 339.447C295.468 341.143 294.991 342.662 294.037 344.005C293.119 345.347 291.776 346.407 290.009 347.185C288.278 347.927 286.246 348.298 283.914 348.298ZM307.283 324.554V338.758C307.283 339.747 307.513 340.471 307.972 340.931C308.467 341.355 309.28 341.567 310.41 341.567H313.855V347.821H309.191C302.937 347.821 299.81 344.782 299.81 338.705V324.554H296.312V318.459H299.81V311.198H307.283V318.459H313.855V324.554H307.283Z" fill="#F6FBF4" fill-opacity="0.8"/>
</g>
<defs>
<filter id="filter0_d_36_134" x="26.8522" y="4.6875" width="403.296" height="448.662" filterUnits="userSpaceOnUse" color-interpolation-filters="sRGB">
<feFlood flood-opacity="0" result="BackgroundImageFix"/>
<feColorMatrix in="SourceAlpha" type="matrix" values="0 0 0 0 0 0 0 0 0 0 0 0 0 0 0 0 0 0 127 0" result="hardAlpha"/>
<feOffset dy="4"/>
<feGaussianBlur stdDeviation="2"/>
<feComposite in2="hardAlpha" operator="out"/>
<feColorMatrix type="matrix" values="0 0 0 0 0 0 0 0 0 0 0 0 0 0 0 0 0 0 0.25 0"/>
<feBlend mode="normal" in2="BackgroundImageFix" result="effect1_dropShadow_36_134"/>
<feBlend mode="normal" in="SourceGraphic" in2="effect1_dropShadow_36_134" result="shape"/>
</filter>
<filter id="filter1_d_36_134" x="224.5" y="9.6875" width="200.648" height="438.662" filterUnits="userSpaceOnUse" color-interpolation-filters="sRGB">
<feFlood flood-opacity="0" result="BackgroundImageFix"/>
<feColorMatrix in="SourceAlpha" type="matrix" values="0 0 0 0 0 0 0 0 0 0 0 0 0 0 0 0 0 0 127 0" result="hardAlpha"/>
<feOffset dy="4"/>
<feGaussianBlur stdDeviation="2"/>
<feComposite in2="hardAlpha" operator="out"/>
<feColorMatrix type="matrix" values="0 0 0 0 0 0 0 0 0 0 0 0 0 0 0 0 0 0 0.25 0"/>
<feBlend mode="normal" in2="BackgroundImageFix" result="effect1_dropShadow_36_134"/>
<feBlend mode="normal" in="SourceGraphic" in2="effect1_dropShadow_36_134" result="shape"/>
</filter>
<clipPath id="clip0_36_134">
<rect width="457" height="450" fill="white" transform="translate(0 0.76416)"/>
</clipPath>
</defs>
</svg>
