<svg width="458" height="451" viewBox="0 0 458 451" fill="none" xmlns="http://www.w3.org/2000/svg">
<g clip-path="url(#clip0_45_434)">
<g filter="url(#filter0_d_45_434)">
<path d="M412.537 60.1568L233.278 9.47824C230.768 8.76832 228.093 8.76832 225.583 9.47824L46.323 60.1568C40.6596 61.7575 36.7822 66.6697 36.7822 72.2414V258.062C36.7822 282.231 47.1647 306.973 67.6413 331.599C83.2802 350.406 104.918 369.293 131.951 387.733C177.362 418.71 222.079 437.713 223.959 438.506C225.7 439.241 227.565 439.608 229.431 439.608C231.296 439.608 233.162 439.241 234.902 438.506C236.783 437.713 281.499 418.71 326.911 387.733C353.943 369.292 375.579 350.406 391.219 331.599C411.695 306.973 422.078 282.232 422.078 258.062V72.2414C422.078 66.6697 418.2 61.7575 412.537 60.1568Z" fill="#D2E8C6"/>
<path d="M235.874 440.81C237.813 439.992 282.706 420.913 328.32 389.798C355.483 371.268 377.312 352.232 393.141 333.197C413.869 308.27 424.578 282.983 424.578 258.062V72.2414C424.578 65.4658 419.872 59.6323 413.217 57.7511L233.958 7.07262C231.004 6.23686 227.857 6.23686 224.903 7.07262L45.643 57.751C38.987 59.6323 34.2822 65.4659 34.2822 72.2414V258.062C34.2822 282.982 44.9914 308.27 65.7191 333.197C81.547 352.232 103.378 371.269 130.542 389.798C176.154 420.912 221.045 439.99 222.988 440.81C225.042 441.676 227.238 442.108 229.431 442.108C231.622 442.108 233.819 441.678 235.874 440.81ZM235.874 440.81L234.902 438.506L235.875 440.809C235.875 440.809 235.874 440.81 235.874 440.81Z" stroke="#285C08" stroke-width="5"/>
</g>
<path d="M412.537 60.1568L233.278 9.47824C232.023 9.12328 230.726 8.9458 229.43 8.9458V439.608C231.296 439.608 233.162 439.241 234.903 438.506C236.783 437.713 281.5 418.71 326.911 387.733C353.943 369.292 375.579 350.406 391.219 331.599C411.696 306.973 422.078 282.232 422.078 258.062V72.2414C422.078 66.6697 418.2 61.7575 412.537 60.1568Z" fill="#B5D9A1"/>
<path d="M136.328 159.129C137.495 135.796 145.662 117.829 160.828 105.229C176.228 92.3955 196.412 85.9788 221.378 85.9788C238.412 85.9788 252.995 89.0122 265.128 95.0788C277.262 100.912 286.362 108.962 292.428 119.229C298.728 129.262 301.878 140.696 301.878 153.529C301.878 168.229 298.028 180.712 290.328 190.979C282.862 201.012 273.878 207.779 263.378 211.279V212.679C276.912 216.879 287.412 224.346 294.878 235.079C302.578 245.812 306.428 259.579 306.428 276.379C306.428 290.379 303.162 302.862 296.628 313.829C290.328 324.796 280.878 333.429 268.278 339.729C255.912 345.796 240.978 348.829 223.478 348.829C197.112 348.829 175.645 342.179 159.078 328.879C142.512 315.579 133.762 295.979 132.828 270.079H180.428C180.895 281.512 184.745 290.729 191.978 297.729C199.445 304.496 209.595 307.879 222.428 307.879C234.328 307.879 243.428 304.612 249.728 298.079C256.262 291.312 259.528 282.679 259.528 272.179C259.528 258.179 255.095 248.146 246.228 242.079C237.362 236.012 223.595 232.979 204.928 232.979H194.778V192.729H204.928C238.062 192.729 254.628 181.646 254.628 159.479C254.628 149.446 251.595 141.629 245.528 136.029C239.695 130.429 231.178 127.629 219.978 127.629C209.012 127.629 200.495 130.662 194.428 136.729C188.595 142.562 185.212 150.029 184.278 159.129H136.328ZM318.427 322.275C319.381 320.72 320.617 319.501 322.137 318.618C323.691 317.735 325.458 317.293 327.437 317.293V325.084H325.476C323.144 325.084 321.377 325.632 320.176 326.727C319.01 327.822 318.427 329.73 318.427 332.451V347.079H311.007V317.717H318.427V322.275ZM327.612 332.292C327.612 329.324 328.195 326.692 329.361 324.395C330.562 322.098 332.187 320.332 334.237 319.095C336.286 317.858 338.565 317.24 341.074 317.24C342.982 317.24 344.801 317.664 346.533 318.512C348.264 319.325 349.642 320.42 350.667 321.798V307.859H358.193V347.079H350.667V342.733C349.748 344.182 348.458 345.348 346.798 346.231C345.137 347.114 343.211 347.556 341.021 347.556C338.547 347.556 336.286 346.92 334.237 345.648C332.187 344.376 330.562 342.592 329.361 340.295C328.195 337.963 327.612 335.295 327.612 332.292ZM350.72 332.398C350.72 330.596 350.366 329.059 349.66 327.787C348.953 326.48 347.999 325.49 346.798 324.819C345.596 324.112 344.307 323.759 342.929 323.759C341.551 323.759 340.279 324.095 339.113 324.766C337.947 325.437 336.993 326.427 336.251 327.734C335.544 329.006 335.191 330.525 335.191 332.292C335.191 334.059 335.544 335.613 336.251 336.956C336.993 338.263 337.947 339.27 339.113 339.977C340.314 340.684 341.586 341.037 342.929 341.037C344.307 341.037 345.596 340.701 346.798 340.03C347.999 339.323 348.953 338.334 349.66 337.062C350.366 335.755 350.72 334.2 350.72 332.398Z" fill="#F6FBF4" fill-opacity="0.8"/>
</g>
<defs>
<filter id="filter0_d_45_434" x="11.7822" y="-12.0542" width="435.296" height="480.662" filterUnits="userSpaceOnUse" color-interpolation-filters="sRGB">
<feFlood flood-opacity="0" result="BackgroundImageFix"/>
<feColorMatrix in="SourceAlpha" type="matrix" values="0 0 0 0 0 0 0 0 0 0 0 0 0 0 0 0 0 0 127 0" result="hardAlpha"/>
<feOffset dy="4"/>
<feGaussianBlur stdDeviation="10"/>
<feComposite in2="hardAlpha" operator="out"/>
<feColorMatrix type="matrix" values="0 0 0 0 0.156943 0 0 0 0 0.3625 0 0 0 0 0.0317187 0 0 0 0.25 0"/>
<feBlend mode="normal" in2="BackgroundImageFix" result="effect1_dropShadow_45_434"/>
<feBlend mode="normal" in="SourceGraphic" in2="effect1_dropShadow_45_434" result="shape"/>
</filter>
<clipPath id="clip0_45_434">
<rect width="457" height="450" fill="white" transform="translate(0.930176 0.0224609)"/>
</clipPath>
</defs>
</svg>
