<svg width="458" height="451" viewBox="0 0 458 451" fill="none" xmlns="http://www.w3.org/2000/svg">
<g clip-path="url(#clip0_45_435)">
<g filter="url(#filter0_d_45_435)">
<path d="M411.759 60.6636L232.5 9.98508C229.99 9.27516 227.315 9.27516 224.805 9.98508L45.5447 60.6636C39.8813 62.2643 36.0039 67.1765 36.0039 72.7482V258.569C36.0039 282.738 46.3864 307.48 66.863 332.105C82.5019 350.913 104.14 369.8 131.172 388.24C176.584 419.217 221.3 438.22 223.181 439.013C224.922 439.747 226.787 440.115 228.653 440.115C230.518 440.115 232.384 439.748 234.124 439.013C236.005 438.22 280.721 419.217 326.133 388.24C353.165 369.799 374.801 350.913 390.44 332.105C410.917 307.48 421.3 282.739 421.3 258.569V72.7482C421.3 67.1765 417.421 62.2643 411.759 60.6636Z" fill="#D2E8C6"/>
<path d="M235.096 441.317C237.035 440.499 281.928 421.42 327.542 390.305C354.705 371.775 376.534 352.739 392.363 333.704C413.09 308.777 423.8 283.489 423.8 258.569V72.7482C423.8 65.9726 419.094 60.1391 412.439 58.2579L233.18 7.57945C230.225 6.7437 227.079 6.7437 224.124 7.57945L44.8647 58.2579C38.2086 60.1391 33.5039 65.9728 33.5039 72.7482V258.569C33.5039 283.489 44.2131 308.777 64.9408 333.704C80.7687 352.739 102.599 371.776 129.764 390.305C175.375 421.419 220.266 440.497 222.209 441.317C224.263 442.183 226.46 442.615 228.653 442.615C230.844 442.615 233.041 442.185 235.096 441.317ZM235.096 441.317L234.124 439.013L235.097 441.316C235.096 441.316 235.096 441.316 235.096 441.317Z" stroke="#285C08" stroke-width="5"/>
</g>
<path d="M411.759 60.6636L232.5 9.98508C231.245 9.63012 229.948 9.45264 228.652 9.45264V440.115C230.517 440.115 232.384 439.748 234.124 439.013C236.005 438.22 280.721 419.217 326.133 388.24C353.165 369.799 374.801 350.913 390.441 332.105C410.917 307.48 421.3 282.739 421.3 258.569V72.7482C421.3 67.1765 417.421 62.2643 411.759 60.6636Z" fill="#B5D9A1"/>
<path d="M143.686 292.286C166.086 273.619 183.936 258.102 197.236 245.736C210.536 233.136 221.62 220.069 230.486 206.536C239.353 193.002 243.786 179.702 243.786 166.636C243.786 154.736 240.986 145.402 235.386 138.636C229.786 131.869 221.153 128.486 209.486 128.486C197.82 128.486 188.836 132.452 182.536 140.386C176.236 148.086 172.97 158.702 172.736 172.236H125.136C126.07 144.236 134.353 123.002 149.986 108.536C165.853 94.069 185.92 86.8357 210.186 86.8357C236.786 86.8357 257.203 93.9523 271.436 108.186C285.67 122.186 292.786 140.736 292.786 163.836C292.786 182.036 287.886 199.419 278.086 215.986C268.286 232.552 257.086 247.019 244.486 259.386C231.886 271.519 215.436 286.219 195.136 303.486H298.386V344.086H125.486V307.686L143.686 292.286ZM318.391 317.8C321.889 317.8 324.716 318.913 326.871 321.139C329.026 323.329 330.104 326.403 330.104 330.361V347.586H322.684V331.368C322.684 329.036 322.101 327.251 320.935 326.015C319.769 324.743 318.179 324.107 316.165 324.107C314.116 324.107 312.49 324.743 311.289 326.015C310.123 327.251 309.54 329.036 309.54 331.368V347.586H302.12V318.224H309.54V321.881C310.529 320.609 311.784 319.619 313.303 318.913C314.858 318.171 316.554 317.8 318.391 317.8ZM333.397 332.799C333.397 329.831 333.98 327.198 335.146 324.902C336.347 322.605 337.973 320.838 340.022 319.602C342.071 318.365 344.35 317.747 346.859 317.747C348.767 317.747 350.587 318.171 352.318 319.019C354.049 319.831 355.427 320.927 356.452 322.305V308.366H363.978V347.586H356.452V343.24C355.533 344.688 354.244 345.854 352.583 346.738C350.922 347.621 348.997 348.063 346.806 348.063C344.333 348.063 342.071 347.427 340.022 346.155C337.973 344.883 336.347 343.098 335.146 340.802C333.98 338.47 333.397 335.802 333.397 332.799ZM356.505 332.905C356.505 331.103 356.152 329.566 355.445 328.294C354.738 326.986 353.784 325.997 352.583 325.326C351.382 324.619 350.092 324.266 348.714 324.266C347.336 324.266 346.064 324.601 344.898 325.273C343.732 325.944 342.778 326.933 342.036 328.241C341.329 329.513 340.976 331.032 340.976 332.799C340.976 334.565 341.329 336.12 342.036 337.463C342.778 338.77 343.732 339.777 344.898 340.484C346.099 341.19 347.371 341.544 348.714 341.544C350.092 341.544 351.382 341.208 352.583 340.537C353.784 339.83 354.738 338.841 355.445 337.569C356.152 336.261 356.505 334.707 356.505 332.905Z" fill="#F6FBF4" fill-opacity="0.8"/>
</g>
<defs>
<filter id="filter0_d_45_435" x="11.0039" y="-11.5474" width="435.296" height="480.662" filterUnits="userSpaceOnUse" color-interpolation-filters="sRGB">
<feFlood flood-opacity="0" result="BackgroundImageFix"/>
<feColorMatrix in="SourceAlpha" type="matrix" values="0 0 0 0 0 0 0 0 0 0 0 0 0 0 0 0 0 0 127 0" result="hardAlpha"/>
<feOffset dy="4"/>
<feGaussianBlur stdDeviation="10"/>
<feComposite in2="hardAlpha" operator="out"/>
<feColorMatrix type="matrix" values="0 0 0 0 0.156943 0 0 0 0 0.3625 0 0 0 0 0.0317187 0 0 0 0.25 0"/>
<feBlend mode="normal" in2="BackgroundImageFix" result="effect1_dropShadow_45_435"/>
<feBlend mode="normal" in="SourceGraphic" in2="effect1_dropShadow_45_435" result="shape"/>
</filter>
<clipPath id="clip0_45_435">
<rect width="457" height="450" fill="white" transform="translate(0.151855 0.529297)"/>
</clipPath>
</defs>
</svg>
