<svg width="143" height="102" viewBox="0 0 143 102" fill="none" xmlns="http://www.w3.org/2000/svg">
<rect x="58.9998" y="17.9521" width="17" height="17" transform="rotate(-180 58.9998 17.9521)" fill="#439A0E" fill-opacity="0.2"/>
<rect x="59" y="101.952" width="17" height="17" transform="rotate(-180 59 101.952)" fill="#439A0E" fill-opacity="0.2"/>
<rect x="143" y="59.9521" width="17" height="17" transform="rotate(-180 143 59.9521)" fill="#439A0E" fill-opacity="0.2"/>
<rect x="59" y="59.9521" width="17" height="17" transform="rotate(-180 59 59.9521)" fill="#439A0E" fill-opacity="0.2"/>
<rect x="17" y="59.9521" width="17" height="17" transform="rotate(-180 17 59.9521)" fill="#439A0E" fill-opacity="0.2"/>
<rect x="101" y="59.9521" width="17" height="17" transform="rotate(-180 101 59.9521)" fill="#439A0E" fill-opacity="0.2"/>
<rect x="101" y="17.9521" width="17" height="17" transform="rotate(-180 101 17.9521)" fill="#439A0E" fill-opacity="0.2"/>
<rect x="143" y="17.9521" width="17" height="17" transform="rotate(-180 143 17.9521)" fill="#439A0E" fill-opacity="0.2"/>
<rect x="143" y="101.952" width="17" height="17" transform="rotate(-180 143 101.952)" fill="#439A0E" fill-opacity="0.2"/>
</svg>
