<svg width="519" height="203" viewBox="0 0 519 203" fill="none" xmlns="http://www.w3.org/2000/svg">
<rect x="56.1152" y="202.083" width="25" height="24.9998" transform="rotate(-90 56.1152 202.083)" fill="#439A0E" fill-opacity="0.2"/>
<rect x="56.1152" y="25.083" width="25" height="24.9998" transform="rotate(-90 56.1152 25.083)" fill="#439A0E" fill-opacity="0.2"/>
<rect x="0.115723" y="202.083" width="25" height="24.9998" transform="rotate(-90 0.115723 202.083)" fill="#439A0E" fill-opacity="0.2"/>
<rect x="112.115" y="202.083" width="25" height="24.9998" transform="rotate(-90 112.115 202.083)" fill="#439A0E" fill-opacity="0.2"/>
<rect x="112.115" y="143.083" width="25" height="24.9998" transform="rotate(-90 112.115 143.083)" fill="#439A0E" fill-opacity="0.2"/>
<rect x="56.1152" y="143.083" width="25" height="24.9998" transform="rotate(-90 56.1152 143.083)" fill="#439A0E" fill-opacity="0.2"/>
<rect x="0.115723" y="86.7563" width="25" height="24.9998" transform="rotate(-90 0.115723 86.7563)" fill="#439A0E" fill-opacity="0.2"/>
<rect x="168.114" y="143.083" width="25" height="24.9998" transform="rotate(-90 168.114 143.083)" fill="#439A0E" fill-opacity="0.2"/>
<rect x="227.311" y="202.083" width="25" height="24.9998" transform="rotate(-90 227.311 202.083)" fill="#439A0E" fill-opacity="0.2"/>
<rect x="279.747" y="143.083" width="25" height="24.9998" transform="rotate(-90 279.747 143.083)" fill="#439A0E" fill-opacity="0.2"/>
<rect x="335.746" y="143.083" width="25" height="24.9998" transform="rotate(-90 335.746 143.083)" fill="#439A0E" fill-opacity="0.2"/>
<path d="M493.683 177.083V202.083H518.682V177.083H493.683Z" fill="#439A0E" fill-opacity="0.2"/>
</svg>
