<svg width="529" height="203" viewBox="0 0 529 203" fill="none" xmlns="http://www.w3.org/2000/svg">
<rect width="25" height="25" transform="matrix(0 -1 -1 0 472.466 202.083)" fill="#439A0E" fill-opacity="0.2"/>
<rect width="25" height="25" transform="matrix(0 -1 -1 0 472.466 25.083)" fill="#439A0E" fill-opacity="0.2"/>
<rect width="25" height="25" transform="matrix(0 -1 -1 0 528.466 202.083)" fill="#439A0E" fill-opacity="0.2"/>
<rect width="25" height="25" transform="matrix(0 -1 -1 0 416.466 202.083)" fill="#439A0E" fill-opacity="0.2"/>
<rect width="25" height="25" transform="matrix(0 -1 -1 0 416.466 143.083)" fill="#439A0E" fill-opacity="0.2"/>
<rect width="25" height="25" transform="matrix(0 -1 -1 0 472.466 143.083)" fill="#439A0E" fill-opacity="0.2"/>
<rect width="25" height="25" transform="matrix(0 -1 -1 0 528.466 86.7563)" fill="#439A0E" fill-opacity="0.2"/>
<rect width="25" height="25" transform="matrix(0 -1 -1 0 360.466 143.083)" fill="#439A0E" fill-opacity="0.2"/>
<rect width="25" height="25" transform="matrix(0 -1 -1 0 25.2002 143.083)" fill="#439A0E" fill-opacity="0.2"/>
<rect width="25" height="25" transform="matrix(0 -1 -1 0 248.833 143.083)" fill="#439A0E" fill-opacity="0.2"/>
<rect width="25" height="25" transform="matrix(0 -1 -1 0 304.466 202.083)" fill="#439A0E" fill-opacity="0.2"/>
<rect width="25" height="25" transform="matrix(0 -1 -1 0 192.833 202.083)" fill="#439A0E" fill-opacity="0.2"/>
<rect width="25" height="25" transform="matrix(0 -1 -1 0 80.8335 202.083)" fill="#439A0E" fill-opacity="0.2"/>
<rect width="25" height="25" transform="matrix(0 -1 -1 0 136.833 202.083)" fill="#439A0E" fill-opacity="0.2"/>
<rect width="25" height="25" transform="matrix(0 -1 -1 0 192.833 143.083)" fill="#439A0E" fill-opacity="0.2"/>
<path d="M416.466 59.0825V84.0825H391.466V59.0825H416.466Z" fill="#439A0E" fill-opacity="0.2"/>
</svg>
