<svg width="206" height="573" viewBox="0 0 206 573" fill="none" xmlns="http://www.w3.org/2000/svg">
<rect x="60.291" y="547.369" width="25" height="25" fill="#439A0E" fill-opacity="0.2"/>
<rect x="180.291" y="545.534" width="25" height="25" fill="#439A0E" fill-opacity="0.2"/>
<rect x="60.291" y="365.534" width="25" height="25" fill="#439A0E" fill-opacity="0.2"/>
<rect x="120.291" y="365.534" width="25" height="25" fill="#439A0E" fill-opacity="0.2"/>
<rect x="120.291" y="425.534" width="25" height="25" fill="#439A0E" fill-opacity="0.2"/>
<rect x="0.291016" y="425.534" width="25" height="25" fill="#439A0E" fill-opacity="0.2"/>
<rect x="180.291" y="425.534" width="25" height="25" fill="#439A0E" fill-opacity="0.2"/>
<rect x="60.291" y="485.534" width="25" height="25" fill="#439A0E" fill-opacity="0.2"/>
<rect x="120.291" y="485.534" width="25" height="25" fill="#439A0E" fill-opacity="0.2"/>
<rect x="180.291" y="485.534" width="25" height="25" fill="#439A0E" fill-opacity="0.2"/>
<rect x="120.291" y="183.698" width="25" height="25" fill="#439A0E" fill-opacity="0.2"/>
<rect x="180.291" y="181.863" width="25" height="25" fill="#439A0E" fill-opacity="0.2"/>
<rect x="120.291" y="243.698" width="25" height="25" fill="#439A0E" fill-opacity="0.2"/>
<rect x="60.291" y="303.698" width="25" height="25" fill="#439A0E" fill-opacity="0.2"/>
<rect x="180.291" y="303.698" width="25" height="25" fill="#439A0E" fill-opacity="0.2"/>
<rect x="60.291" y="1.86292" width="25" height="25" fill="#439A0E" fill-opacity="0.2"/>
<rect x="180.291" y="0.0274658" width="25" height="25" fill="#439A0E" fill-opacity="0.2"/>
<rect x="60.291" y="61.8629" width="25" height="25" fill="#439A0E" fill-opacity="0.2"/>
<rect x="120.291" y="61.8629" width="25" height="25" fill="#439A0E" fill-opacity="0.2"/>
<rect x="0.291016" y="61.8629" width="25" height="25" fill="#439A0E" fill-opacity="0.2"/>
<rect x="60.291" y="121.863" width="25" height="25" fill="#439A0E" fill-opacity="0.2"/>
<rect x="120.291" y="121.863" width="25" height="25" fill="#439A0E" fill-opacity="0.2"/>
<rect x="180.291" y="121.863" width="25" height="25" fill="#439A0E" fill-opacity="0.2"/>
</svg>
