<svg width="101" height="438" viewBox="0 0 101 438" fill="none" xmlns="http://www.w3.org/2000/svg">
<rect x="101" y="42.5971" width="17" height="17" transform="rotate(90 101 42.5971)" fill="#439A0E" fill-opacity="0.2"/>
<rect x="59" y="42.5971" width="17" height="17" transform="rotate(90 59 42.5971)" fill="#439A0E" fill-opacity="0.2"/>
<rect x="101" y="378.597" width="17" height="17" transform="rotate(90 101 378.597)" fill="#439A0E" fill-opacity="0.2"/>
<rect x="101" y="168.597" width="17" height="17" transform="rotate(90 101 168.597)" fill="#439A0E" fill-opacity="0.2"/>
<rect x="101" y="294.597" width="17" height="17" transform="rotate(90 101 294.597)" fill="#439A0E" fill-opacity="0.2"/>
<rect x="101" y="336.597" width="17" height="17" transform="rotate(90 101 336.597)" fill="#439A0E" fill-opacity="0.2"/>
<rect x="59" y="210.597" width="17" height="17" transform="rotate(90 59 210.597)" fill="#439A0E" fill-opacity="0.2"/>
<rect x="59" y="336.597" width="17" height="17" transform="rotate(90 59 336.597)" fill="#439A0E" fill-opacity="0.2"/>
<rect x="59" y="378.597" width="17" height="17" transform="rotate(90 59 378.597)" fill="#439A0E" fill-opacity="0.2"/>
<rect x="17" y="378.597" width="17" height="17" transform="rotate(90 17 378.597)" fill="#439A0E" fill-opacity="0.2"/>
<rect x="17" y="294.597" width="17" height="17" transform="rotate(90 17 294.597)" fill="#439A0E" fill-opacity="0.2"/>
<rect x="17" y="336.597" width="17" height="17" transform="rotate(90 17 336.597)" fill="#439A0E" fill-opacity="0.2"/>
<rect x="17" y="210.597" width="17" height="17" transform="rotate(90 17 210.597)" fill="#439A0E" fill-opacity="0.2"/>
<rect x="101" y="252.597" width="17" height="17" transform="rotate(90 101 252.597)" fill="#439A0E" fill-opacity="0.2"/>
<rect x="59" y="252.597" width="17" height="17" transform="rotate(90 59 252.597)" fill="#439A0E" fill-opacity="0.2"/>
<rect x="59" y="0.597107" width="17" height="17" transform="rotate(90 59 0.597107)" fill="#439A0E" fill-opacity="0.2"/>
<rect x="59" y="126.597" width="17" height="17" transform="rotate(90 59 126.597)" fill="#439A0E" fill-opacity="0.2"/>
<rect x="59" y="168.597" width="17" height="17" transform="rotate(90 59 168.597)" fill="#439A0E" fill-opacity="0.2"/>
<rect x="17" y="42.5971" width="17" height="17" transform="rotate(90 17 42.5971)" fill="#439A0E" fill-opacity="0.2"/>
<rect x="101" y="84.5971" width="17" height="17" transform="rotate(90 101 84.5971)" fill="#439A0E" fill-opacity="0.2"/>
<rect x="59" y="84.5971" width="17" height="17" transform="rotate(90 59 84.5971)" fill="#439A0E" fill-opacity="0.2"/>
<rect x="17" y="0.597107" width="17" height="17" transform="rotate(90 17 0.597107)" fill="#439A0E" fill-opacity="0.2"/>
<rect x="101" y="0.597107" width="17" height="17" transform="rotate(90 101 0.597107)" fill="#439A0E" fill-opacity="0.2"/>
<rect x="59" y="420.597" width="17" height="17" transform="rotate(90 59 420.597)" fill="#439A0E" fill-opacity="0.2"/>
<rect x="17" y="420.597" width="17" height="17" transform="rotate(90 17 420.597)" fill="#439A0E" fill-opacity="0.2"/>
<rect x="101" y="420.597" width="17" height="17" transform="rotate(90 101 420.597)" fill="#439A0E" fill-opacity="0.2"/>
</svg>
