<svg width="203" height="361" viewBox="0 0 203 361" fill="none" xmlns="http://www.w3.org/2000/svg">
<rect x="202.521" y="304.66" width="25" height="25" transform="rotate(180 202.521 304.66)" fill="#439A0E" fill-opacity="0.2"/>
<rect x="202.521" y="360.66" width="25" height="25" transform="rotate(180 202.521 360.66)" fill="#439A0E" fill-opacity="0.2"/>
<rect x="202.521" y="248.66" width="25" height="25" transform="rotate(180 202.521 248.66)" fill="#439A0E" fill-opacity="0.2"/>
<rect x="202.521" y="140.321" width="25" height="25" transform="rotate(180 202.521 140.321)" fill="#439A0E" fill-opacity="0.2"/>
<rect x="143.521" y="304.66" width="25" height="25" transform="rotate(180 143.521 304.66)" fill="#439A0E" fill-opacity="0.2"/>
<rect x="84.5205" y="304.66" width="25" height="25" transform="rotate(180 84.5205 304.66)" fill="#439A0E" fill-opacity="0.2"/>
<rect x="143.354" y="192.66" width="25" height="25" transform="rotate(180 143.354 192.66)" fill="#439A0E" fill-opacity="0.2"/>
<rect x="84.5205" y="192.66" width="25" height="25" transform="rotate(180 84.5205 192.66)" fill="#439A0E" fill-opacity="0.2"/>
<rect x="25.5205" y="192.66" width="25" height="25" transform="rotate(180 25.5205 192.66)" fill="#439A0E" fill-opacity="0.2"/>
<rect x="84.5205" y="137.027" width="25" height="25" transform="rotate(180 84.5205 137.027)" fill="#439A0E" fill-opacity="0.2"/>
<rect x="25.5205" y="137.027" width="25" height="25" transform="rotate(180 25.5205 137.027)" fill="#439A0E" fill-opacity="0.2"/>
<rect x="202.521" y="81.0273" width="25" height="25" transform="rotate(180 202.521 81.0273)" fill="#439A0E" fill-opacity="0.2"/>
<rect x="143.521" y="81.0273" width="25" height="25" transform="rotate(180 143.521 81.0273)" fill="#439A0E" fill-opacity="0.2"/>
<rect x="25.5205" y="81.0273" width="25" height="25" transform="rotate(180 25.5205 81.0273)" fill="#439A0E" fill-opacity="0.2"/>
<rect x="202.521" y="25.0273" width="25" height="25" transform="rotate(180 202.521 25.0273)" fill="#439A0E" fill-opacity="0.2"/>
<rect x="84.5205" y="25.0273" width="25" height="25" transform="rotate(180 84.5205 25.0273)" fill="#439A0E" fill-opacity="0.2"/>
<rect x="25.5205" y="25.0273" width="25" height="25" transform="rotate(180 25.5205 25.0273)" fill="#439A0E" fill-opacity="0.2"/>
</svg>
