<svg width="206" height="510" viewBox="0 0 206 510" fill="none" xmlns="http://www.w3.org/2000/svg">
<rect x="60.291" y="364.027" width="25" height="25" fill="#439A0E" fill-opacity="0.2"/>
<rect x="120.291" y="364.027" width="25" height="25" fill="#439A0E" fill-opacity="0.2"/>
<rect x="60.291" y="424.027" width="25" height="25" fill="#439A0E" fill-opacity="0.2"/>
<rect x="0.291016" y="424.027" width="25" height="25" fill="#439A0E" fill-opacity="0.2"/>
<rect x="180.291" y="424.027" width="25" height="25" fill="#439A0E" fill-opacity="0.2"/>
<rect x="60.291" y="484.027" width="25" height="25" fill="#439A0E" fill-opacity="0.2"/>
<rect x="120.291" y="484.027" width="25" height="25" fill="#439A0E" fill-opacity="0.2"/>
<rect x="60.291" y="182.192" width="25" height="25" fill="#439A0E" fill-opacity="0.2"/>
<rect x="120.291" y="182.192" width="25" height="25" fill="#439A0E" fill-opacity="0.2"/>
<rect x="180.291" y="180.357" width="25" height="25" fill="#439A0E" fill-opacity="0.2"/>
<rect x="120.291" y="242.192" width="25" height="25" fill="#439A0E" fill-opacity="0.2"/>
<rect x="180.291" y="242.192" width="25" height="25" fill="#439A0E" fill-opacity="0.2"/>
<rect x="60.291" y="302.192" width="25" height="25" fill="#439A0E" fill-opacity="0.2"/>
<rect x="120.291" y="302.192" width="25" height="25" fill="#439A0E" fill-opacity="0.2"/>
<rect x="0.291016" y="0.356567" width="25" height="25" fill="#439A0E" fill-opacity="0.2"/>
<rect x="120.291" y="0.356567" width="25" height="25" fill="#439A0E" fill-opacity="0.2"/>
<rect x="180.291" y="0.356567" width="25" height="25" fill="#439A0E" fill-opacity="0.2"/>
<rect x="60.291" y="60.3566" width="25" height="25" fill="#439A0E" fill-opacity="0.2"/>
<rect x="120.291" y="60.3566" width="25" height="25" fill="#439A0E" fill-opacity="0.2"/>
<rect x="180.291" y="60.3566" width="25" height="25" fill="#439A0E" fill-opacity="0.2"/>
<rect x="120.291" y="120.357" width="25" height="25" fill="#439A0E" fill-opacity="0.2"/>
</svg>
