<svg width="101" height="421" viewBox="0 0 101 421" fill="none" xmlns="http://www.w3.org/2000/svg">
<rect x="17" y="420.683" width="17" height="17" transform="rotate(90 17 420.683)" fill="#439A0E" fill-opacity="0.2"/>
<rect x="101" y="168.683" width="17" height="17" transform="rotate(90 101 168.683)" fill="#439A0E" fill-opacity="0.2"/>
<rect x="101" y="294.683" width="17" height="17" transform="rotate(90 101 294.683)" fill="#439A0E" fill-opacity="0.2"/>
<rect x="101" y="336.683" width="17" height="17" transform="rotate(90 101 336.683)" fill="#439A0E" fill-opacity="0.2"/>
<rect x="59" y="210.683" width="17" height="17" transform="rotate(90 59 210.683)" fill="#439A0E" fill-opacity="0.2"/>
<rect x="59" y="336.683" width="17" height="17" transform="rotate(90 59 336.683)" fill="#439A0E" fill-opacity="0.2"/>
<rect x="59" y="378.683" width="17" height="17" transform="rotate(90 59 378.683)" fill="#439A0E" fill-opacity="0.2"/>
<rect x="17" y="378.683" width="17" height="17" transform="rotate(90 17 378.683)" fill="#439A0E" fill-opacity="0.2"/>
<rect x="17" y="294.683" width="17" height="17" transform="rotate(90 17 294.683)" fill="#439A0E" fill-opacity="0.2"/>
<rect x="17" y="336.683" width="17" height="17" transform="rotate(90 17 336.683)" fill="#439A0E" fill-opacity="0.2"/>
<rect x="17" y="210.683" width="17" height="17" transform="rotate(90 17 210.683)" fill="#439A0E" fill-opacity="0.2"/>
<rect x="101" y="252.683" width="17" height="17" transform="rotate(90 101 252.683)" fill="#439A0E" fill-opacity="0.2"/>
<rect x="59" y="252.683" width="17" height="17" transform="rotate(90 59 252.683)" fill="#439A0E" fill-opacity="0.2"/>
<rect x="59" y="0.682861" width="17" height="17" transform="rotate(90 59 0.682861)" fill="#439A0E" fill-opacity="0.2"/>
<rect x="59" y="126.683" width="17" height="17" transform="rotate(90 59 126.683)" fill="#439A0E" fill-opacity="0.2"/>
<rect x="59" y="168.683" width="17" height="17" transform="rotate(90 59 168.683)" fill="#439A0E" fill-opacity="0.2"/>
<rect x="17" y="84.6829" width="17" height="17" transform="rotate(90 17 84.6829)" fill="#439A0E" fill-opacity="0.2"/>
<rect x="101" y="84.6829" width="17" height="17" transform="rotate(90 101 84.6829)" fill="#439A0E" fill-opacity="0.2"/>
<rect x="17" y="0.682861" width="17" height="17" transform="rotate(90 17 0.682861)" fill="#439A0E" fill-opacity="0.2"/>
<rect x="101" y="0.682861" width="17" height="17" transform="rotate(90 101 0.682861)" fill="#439A0E" fill-opacity="0.2"/>
</svg>
