<svg width="107" height="56" viewBox="0 0 107 56" fill="none" xmlns="http://www.w3.org/2000/svg">
<path d="M69.1179 16.112C62.0703 12.4555 66.0726 6.70966 66.6817 6.01319C67.4647 5.1426 67.7258 3.92378 67.3777 2.70495C66.8557 0.78966 64.8545 -0.255046 62.9403 0.267307C61.8962 0.528484 61.0262 1.31201 60.6781 2.26966C60.1561 3.48848 59.9821 4.62025 59.9821 4.62025C58.851 14.9802 69.1179 16.112 69.1179 16.112ZM57.3718 11.1497C60.3301 15.0673 56.5888 17.1567 56.0667 17.4179C55.3707 17.6791 54.9356 18.2885 54.7616 19.072C54.5876 20.2908 55.3707 21.4226 56.5888 21.5967C57.2848 21.6838 57.8939 21.5097 58.4159 21.0744C59.025 20.552 59.373 19.9426 59.373 19.9426C62.7663 14.545 57.3718 11.1497 57.3718 11.1497ZM52.1514 15.5026C52.8475 15.7638 53.6305 15.7638 54.2396 15.3285C55.2837 14.632 55.5447 13.3261 54.8486 12.2814C54.5006 11.672 53.8915 11.4108 53.1955 11.3238C52.4124 11.2367 51.7164 11.4108 51.7164 11.4108C45.3648 12.7167 46.6699 18.985 46.6699 18.985C47.54 14.1097 51.6293 15.3285 52.1514 15.5026ZM0.0338135 41.7944V23.3379C0.0338135 22.2932 0.555859 22.1191 2.55703 22.1191C4.03616 22.1191 4.64522 22.2061 5.16726 23.3379L11.6058 36.3967H11.9539V23.3379C11.9539 22.2932 12.3889 22.1191 14.042 22.1191C15.6952 22.1191 16.1302 22.2932 16.1302 23.3379V41.8814C16.1302 42.9261 15.6952 43.1003 13.694 43.1003C12.2149 43.1003 11.7798 43.0132 11.1708 41.9685L4.4712 28.9097H4.12317V41.9685C4.12317 43.0132 3.68813 43.1873 2.03499 43.1873C0.468851 43.0132 0.0338135 42.8391 0.0338135 41.7944ZM19.5235 35.0038C19.5235 27.3426 21.6987 25.6014 27.2672 25.6014C32.6617 25.6014 34.4888 27.0814 34.4888 34.5685C34.4888 42.3167 32.4007 43.3614 26.7452 43.3614C21.2637 43.3614 19.5235 42.5779 19.5235 35.0038ZM30.2255 34.9167C30.2255 29.8673 29.7904 29.0838 27.0932 29.0838C24.2219 29.0838 23.6999 29.9544 23.6999 34.6555C23.6999 39.705 24.1349 39.8791 26.8322 39.8791C29.7034 39.8791 30.2255 39.6179 30.2255 34.9167ZM41.0144 41.5332L37.0121 28.7355C36.838 28.0391 36.664 27.5167 36.664 27.1685C36.664 26.2979 36.838 25.9497 38.7522 25.9497C40.5794 25.9497 40.9274 26.1238 41.1884 27.3426L44.2337 39.2697H44.7557L47.888 27.3426C48.149 26.1238 48.4971 25.9497 50.3242 25.9497C52.1514 25.9497 52.4124 26.2108 52.4124 27.1685C52.4124 27.4297 52.3254 28.0391 52.1514 28.7355L48.062 41.5332C47.714 42.752 47.1049 43.0132 44.4947 43.0132C41.8845 43.0132 41.3624 42.752 41.0144 41.5332ZM54.9356 41.7944V27.1685C54.9356 26.1238 55.3707 25.9497 57.0238 25.9497C58.59 25.9497 59.112 26.1238 59.112 27.1685V41.7944C59.112 42.8391 58.59 43.0132 57.0238 43.0132C55.3707 43.0132 54.9356 42.9261 54.9356 41.7944ZM62.5923 35.0038C62.5923 26.5591 65.2895 25.6014 69.8139 25.6014C71.4671 25.6014 73.2942 25.9497 74.4253 26.2108C75.1214 26.385 75.3824 26.7332 75.3824 28.0391C75.3824 29.2579 75.1214 29.6932 74.6864 29.6932C74.2513 29.6932 72.0761 29.0838 70.423 29.0838C67.7258 29.0838 66.8557 29.5191 66.8557 34.4814C66.8557 39.705 67.2907 39.6179 70.597 39.6179C72.8592 39.6179 74.3383 39.0085 74.8604 39.0085C75.2954 39.0085 75.5564 39.4438 75.5564 40.6626C75.5564 41.8814 75.2954 42.2297 74.5994 42.4908C73.3813 42.9261 71.5541 43.1873 70.162 43.1873C65.2025 43.3614 62.5923 43.0132 62.5923 35.0038ZM77.4706 35.0038C77.4706 26.5591 80.1678 25.6014 84.9533 25.6014C90.7828 25.6014 91.6528 28.3002 91.6528 33.9591C91.6528 35.265 91.3918 35.8744 90.0867 35.8744H81.734C81.821 39.8791 82.5171 39.705 85.5623 39.705C88.3466 39.705 90.2607 39.0955 90.7828 39.0955C91.2178 39.0955 91.4788 39.5308 91.4788 40.7497C91.4788 41.9685 91.2178 42.3167 90.5218 42.5779C89.3036 43.0132 86.9544 43.2744 85.3013 43.2744C80.0808 43.3614 77.4706 43.0132 77.4706 35.0038ZM81.647 33.3497H87.7375C87.7375 30.3026 87.5635 29.0838 84.8663 29.0838C82.6041 29.0838 81.821 29.6061 81.647 33.3497ZM94.8721 41.7944V22.032C94.8721 20.9873 95.3072 20.8132 96.9603 20.8132C98.5265 20.8132 99.0485 20.9873 99.0485 22.032V41.7944C99.0485 42.8391 98.5265 43.0132 96.9603 43.0132C95.3942 43.0132 94.8721 42.9261 94.8721 41.7944ZM102.79 41.7944V22.032C102.79 20.9873 103.225 20.8132 104.878 20.8132C106.444 20.8132 106.966 20.9873 106.966 22.032V41.7944C106.966 42.8391 106.444 43.0132 104.878 43.0132C103.312 43.0132 102.79 42.9261 102.79 41.7944ZM12.4759 55.8108V50.7614H15.6952V51.545H13.259V52.7638H15.5212V53.5473H13.259V55.8108H12.4759ZM17.1743 53.8955V52.5897C17.1743 51.1097 17.6094 50.6744 19.0885 50.6744C20.5676 50.6744 21.0027 51.1097 21.0027 52.5897V53.8955C21.0027 55.3755 20.5676 55.8108 19.0885 55.8108C17.6964 55.8108 17.1743 55.4626 17.1743 53.8955ZM17.9574 52.6767V53.9826C17.9574 55.0273 18.3054 55.1144 19.0885 55.1144C19.8716 55.1144 20.2196 55.0273 20.2196 53.9826V52.6767C20.2196 51.632 19.8716 51.545 19.0885 51.545C18.3054 51.4579 17.9574 51.632 17.9574 52.6767ZM22.9168 50.7614H24.918C26.1361 50.7614 26.4841 51.0226 26.4841 52.2414C26.4841 52.9379 26.3101 53.3732 25.9621 53.5473C26.2231 54.2438 26.5711 55.0273 26.8322 55.7238H25.9621L25.179 53.7214H23.7869V55.7238H23.0038V50.7614H22.9168ZM23.7869 51.545V53.025H25.005C25.6141 53.025 25.7881 52.9379 25.7881 52.3285C25.7881 51.632 25.6141 51.632 25.005 51.632H23.7869V51.545ZM28.3113 50.7614H30.3125C31.5306 50.7614 31.8786 51.0226 31.8786 52.2414C31.8786 52.9379 31.7046 53.3732 31.3566 53.5473C31.6176 54.2438 31.9656 55.0273 32.2266 55.7238H31.3566L30.5735 53.7214H29.0944V55.7238H28.3113V50.7614ZM29.0944 51.545V53.025H30.3125C30.9215 53.025 31.0955 52.9379 31.0955 52.3285C31.0955 51.632 30.9215 51.632 30.3125 51.632H29.0944V51.545ZM33.7058 55.8108V50.7614H37.0121V51.545H34.4888V52.8508H36.838V53.6344H34.4888V55.0273H37.0121V55.8108H33.7058ZM42.1455 51.545H40.6664V55.8108H39.8833V51.545H38.4912V50.7614H42.1455V51.545ZM44.6687 51.8932V55.8108H43.8857V50.7614H44.9298L46.9309 54.592V50.7614H47.714V55.8108H46.6699L44.6687 51.8932ZM49.8022 55.8108V50.7614H50.5852V55.8108H49.8022ZM53.3695 51.8932V55.8108H52.5864V50.7614H53.6305L55.6317 54.592V50.7614H56.4148V55.8108H55.3707L53.3695 51.8932ZM60.5911 53.112H61.9833V55.6367C61.6352 55.8108 61.0262 55.8108 60.5911 55.8108C59.199 55.8108 58.3289 55.3755 58.3289 53.8955V52.5897C58.3289 51.1097 59.112 50.6744 60.5911 50.6744C61.0262 50.6744 61.6352 50.6744 62.0703 50.8485L61.8962 51.545C61.6352 51.4579 60.8521 51.4579 60.5911 51.4579C59.8081 51.4579 59.112 51.7191 59.112 52.5897V53.8955C59.112 54.7661 59.46 55.0273 60.5911 55.0273H61.2002V53.8085H60.5911V53.112ZM66.5947 53.8955V52.5897C66.5947 51.1097 67.0297 50.6744 68.5088 50.6744C69.988 50.6744 70.423 51.1097 70.423 52.5897V53.8955C70.423 55.3755 69.988 55.8108 68.5088 55.8108C67.1167 55.8108 66.5947 55.4626 66.5947 53.8955ZM67.3777 52.6767V53.9826C67.3777 55.0273 67.7258 55.1144 68.5088 55.1144C69.2919 55.1144 69.6399 55.0273 69.6399 53.9826V52.6767C69.6399 51.632 69.2919 51.545 68.5088 51.545C67.7258 51.4579 67.3777 51.632 67.3777 52.6767ZM73.1202 51.8932V55.8108H72.3372V50.7614H73.3813L75.3824 54.592V50.7614H76.1655V55.8108H75.2084L73.1202 51.8932ZM81.473 55.0273V55.7238H78.3407V50.6744H79.1238V54.9403H81.473V55.0273ZM83.0391 55.8108V50.7614H83.8222V55.8108H83.0391ZM86.6934 51.8932V55.8108H85.9104V50.7614H86.9544L88.9556 54.592V50.7614H89.7387V55.8108H88.6946L86.6934 51.8932ZM91.8269 55.8108V50.7614H95.1332V51.545H92.6099V52.8508H94.9591V53.6344H92.6099V55.0273H95.1332V55.8108H91.8269Z" fill="white"/>
</svg>
