<svg width="143" height="228" viewBox="0 0 143 228" fill="none" xmlns="http://www.w3.org/2000/svg">
<rect x="17" y="168.712" width="17" height="17" transform="rotate(90 17 168.712)" fill="#439A0E" fill-opacity="0.2"/>
<rect x="101" y="210.712" width="17" height="17" transform="rotate(90 101 210.712)" fill="#439A0E" fill-opacity="0.2"/>
<rect x="143" y="210.712" width="17" height="17" transform="rotate(90 143 210.712)" fill="#439A0E" fill-opacity="0.2"/>
<rect x="59" y="84.7119" width="17" height="17" transform="rotate(90 59 84.7119)" fill="#439A0E" fill-opacity="0.2"/>
<rect x="59" y="168.712" width="17" height="17" transform="rotate(90 59 168.712)" fill="#439A0E" fill-opacity="0.2"/>
<rect x="59" y="210.712" width="17" height="17" transform="rotate(90 59 210.712)" fill="#439A0E" fill-opacity="0.2"/>
<rect x="59" y="126.712" width="17" height="17" transform="rotate(90 59 126.712)" fill="#439A0E" fill-opacity="0.2"/>
<rect x="17" y="84.7119" width="17" height="17" transform="rotate(90 17 84.7119)" fill="#439A0E" fill-opacity="0.2"/>
<rect x="17" y="42.7119" width="17" height="17" transform="rotate(90 17 42.7119)" fill="#439A0E" fill-opacity="0.2"/>
<rect x="17" y="126.712" width="17" height="17" transform="rotate(90 17 126.712)" fill="#439A0E" fill-opacity="0.2"/>
<rect x="59" y="0.711914" width="17" height="17" transform="rotate(90 59 0.711914)" fill="#439A0E" fill-opacity="0.2"/>
<rect x="59" y="42.7119" width="17" height="17" transform="rotate(90 59 42.7119)" fill="#439A0E" fill-opacity="0.2"/>
</svg>
