<svg width="101" height="563" viewBox="0 0 101 563" fill="none" xmlns="http://www.w3.org/2000/svg">
<rect x="84" y="59" width="17" height="17" transform="rotate(-90 84 59)" fill="#439A0E" fill-opacity="0.2"/>
<rect x="84" y="17" width="17" height="17" transform="rotate(-90 84 17)" fill="#439A0E" fill-opacity="0.2"/>
<rect x="84" y="143" width="17" height="17" transform="rotate(-90 84 143)" fill="#439A0E" fill-opacity="0.2"/>
<rect y="353" width="17" height="17" transform="rotate(-90 0 353)" fill="#439A0E" fill-opacity="0.2"/>
<rect y="269" width="17" height="17" transform="rotate(-90 0 269)" fill="#439A0E" fill-opacity="0.2"/>
<rect y="227" width="17" height="17" transform="rotate(-90 0 227)" fill="#439A0E" fill-opacity="0.2"/>
<rect x="42" y="353" width="17" height="17" transform="rotate(-90 42 353)" fill="#439A0E" fill-opacity="0.2"/>
<rect x="42" y="227" width="17" height="17" transform="rotate(-90 42 227)" fill="#439A0E" fill-opacity="0.2"/>
<rect x="42" y="185" width="17" height="17" transform="rotate(-90 42 185)" fill="#439A0E" fill-opacity="0.2"/>
<rect x="84" y="185" width="17" height="17" transform="rotate(-90 84 185)" fill="#439A0E" fill-opacity="0.2"/>
<rect x="84" y="269" width="17" height="17" transform="rotate(-90 84 269)" fill="#439A0E" fill-opacity="0.2"/>
<rect x="84" y="227" width="17" height="17" transform="rotate(-90 84 227)" fill="#439A0E" fill-opacity="0.2"/>
<rect x="84" y="353" width="17" height="17" transform="rotate(-90 84 353)" fill="#439A0E" fill-opacity="0.2"/>
<rect x="84" y="311" width="17" height="17" transform="rotate(-90 84 311)" fill="#439A0E" fill-opacity="0.2"/>
<rect x="42" y="311" width="17" height="17" transform="rotate(-90 42 311)" fill="#439A0E" fill-opacity="0.2"/>
<rect y="521" width="17" height="17" transform="rotate(-90 0 521)" fill="#439A0E" fill-opacity="0.2"/>
<rect x="42" y="563" width="17" height="17" transform="rotate(-90 42 563)" fill="#439A0E" fill-opacity="0.2"/>
<rect x="42" y="521" width="17" height="17" transform="rotate(-90 42 521)" fill="#439A0E" fill-opacity="0.2"/>
<rect x="42" y="437" width="17" height="17" transform="rotate(-90 42 437)" fill="#439A0E" fill-opacity="0.2"/>
<rect x="84" y="395" width="17" height="17" transform="rotate(-90 84 395)" fill="#439A0E" fill-opacity="0.2"/>
<rect x="84" y="479" width="17" height="17" transform="rotate(-90 84 479)" fill="#439A0E" fill-opacity="0.2"/>
<rect x="84" y="437" width="17" height="17" transform="rotate(-90 84 437)" fill="#439A0E" fill-opacity="0.2"/>
<rect x="84" y="563" width="17" height="17" transform="rotate(-90 84 563)" fill="#439A0E" fill-opacity="0.2"/>
<rect x="84" y="521" width="17" height="17" transform="rotate(-90 84 521)" fill="#439A0E" fill-opacity="0.2"/>
</svg>
